
<svg width="60px" height="16px" viewBox="0 0 60 16" version="1.1" xmlns="http://www.w3.org/2000/svg" xmlns:xlink="http://www.w3.org/1999/xlink">
    <g id="Page-1" stroke="none" stroke-width="1" fill="none" fill-rule="evenodd">
        <path d="M8.46560847,10.5489362 C8.98295379,10.5489362 9.36801755,10.6453891 9.62081129,10.8382979 C9.87360503,11.0312066 10,11.3375866 10,11.7574468 C10,12.1886546 9.87654444,12.5035451 9.62962963,12.7021277 C9.38271481,12.9007102 8.99471164,13 8.46560847,13 L1.41093474,13 C0.975894356,13 0.631982451,12.8751786 0.379188713,12.6255319 C0.126394974,12.3758853 0,12.0638317 0,11.6893617 C0,11.3148917 0.135213228,10.9461011 0.405643739,10.5829787 L5.8377425,3.45106383 L1.5696649,3.45106383 C1.04056173,3.45106383 0.649619136,3.35177404 0.396825397,3.15319149 C0.144031658,2.95460894 0.0176366843,2.65106587 0.0176366843,2.24255319 C0.0176366843,1.81134536 0.144031658,1.49645489 0.396825397,1.29787234 C0.649619136,1.09928979 1.04056173,1 1.5696649,1 L8.34215168,1 C8.76543422,1 9.10346728,1.1219846 9.35626102,1.36595745 C9.60905476,1.6099303 9.73544974,1.91914706 9.73544974,2.29361702 C9.73544974,2.67943455 9.60023651,3.05389889 9.329806,3.41702128 L3.89770723,10.5489362 L8.46560847,10.5489362 Z M12.5,13 C12.0730316,13 11.7162936,12.8789382 11.4297753,12.636811 C11.143257,12.3946838 11,12.0314985 11,11.5472441 L11,5.45275591 C11,4.96850152 11.143257,4.60531617 11.4297753,4.36318898 C11.7162936,4.12106178 12.0730316,4 12.5,4 C12.9269684,4 13.2837064,4.12106178 13.5702247,4.36318898 C13.856743,4.60531617 14,4.96850152 14,5.45275591 L14,11.5472441 C14,12.0314985 13.856743,12.3946838 13.5702247,12.636811 C13.2837064,12.8789382 12.9269684,13 12.5,13 Z M12.5,3 C12.040814,3 11.6760218,2.86257447 11.4056122,2.5877193 C11.1352027,2.31286412 11,1.9473707 11,1.49122807 C11,1.03508544 11.1352027,0.672515965 11.4056122,0.403508772 C11.6760218,0.134501579 12.040814,0 12.5,0 C12.9489818,0 13.3112231,0.134501579 13.5867347,0.403508772 C13.8622463,0.672515965 14,1.03508544 14,1.49122807 C14,1.9473707 13.8647973,2.31286412 13.5943878,2.5877193 C13.3239782,2.86257447 12.959186,3 12.5,3 Z M21.4033149,4 C22.099451,4 22.7209917,4.18867736 23.2679558,4.56603774 C23.8149199,4.94339811 24.24033,5.47459745 24.5441989,6.15965167 C24.8480678,6.84470589 25,7.62844261 25,8.51088534 C25,9.39332807 24.8480678,10.1683566 24.5441989,10.8359942 C24.24033,11.5036318 23.8176823,12.0174147 23.2762431,12.3773585 C22.7348039,12.7373022 22.1105008,12.9172714 21.4033149,12.9172714 C20.8839753,12.9172714 20.4060795,12.8069677 19.9696133,12.586357 C19.533147,12.3657464 19.1933714,12.069668 18.9502762,11.6981132 L18.9502762,14.658926 C18.9502762,15.0653141 18.8176809,15.3904197 18.5524862,15.6342525 C18.2872915,15.8780854 17.9392287,16 17.5082873,16 C17.0552464,16 16.6906091,15.8693772 16.4143646,15.6081277 C16.1381202,15.3468782 16,15.0130644 16,14.6066763 L16,5.46298984 C16,5.03337956 16.129833,4.68795486 16.3895028,4.42670537 C16.6491726,4.16545588 16.9999978,4.03483309 17.441989,4.03483309 C17.8618806,4.03483309 18.2016562,4.15094224 18.461326,4.38316401 C18.7209958,4.61538578 18.8674031,4.92307501 18.9005525,5.30624093 C19.1325978,4.89985283 19.4723735,4.58055269 19.9198895,4.34833091 C20.3674056,4.11610914 20.8618757,4 21.4033149,4 Z M20.5082873,10.6008708 C21.0165771,10.6008708 21.406076,10.4209017 21.6767956,10.0609579 C21.9475152,9.70101417 22.0828729,9.18432848 22.0828729,8.51088534 C22.0828729,7.80260894 21.9447528,7.25979869 21.6685083,6.88243832 C21.3922638,6.50507794 21.0000025,6.31640058 20.4917127,6.31640058 C19.9834229,6.31640058 19.5911616,6.50217521 19.3149171,6.87373004 C19.0386727,7.24528488 18.9005525,7.77938694 18.9005525,8.47605225 C18.9005525,9.16110647 19.0386727,9.68650035 19.3149171,10.0522496 C19.5911616,10.4179989 19.9889477,10.6008708 20.5082873,10.6008708 Z M31.5,13 C31.0202468,13 30.6347367,12.850471 30.3434579,12.5514085 C30.0521792,12.2523459 29.9065421,11.8525847 29.9065421,11.3521127 L29.9065421,2.72816901 L27.4906542,2.72816901 C26.9880556,2.72816901 26.613968,2.61525935 26.3683801,2.38943662 C26.1227921,2.16361389 26,1.81878166 26,1.35492958 C26,0.891077493 26.1227921,0.549296873 26.3683801,0.329577465 C26.613968,0.109858056 26.9880556,0 27.4906542,0 L35.5093458,0 C36.0119444,0 36.386032,0.109858056 36.6316199,0.329577465 C36.8772079,0.549296873 37,0.891077493 37,1.35492958 C37,1.81878166 36.8772079,2.16361389 36.6316199,2.38943662 C36.386032,2.61525935 36.0119444,2.72816901 35.5093458,2.72816901 L33.0934579,2.72816901 L33.0934579,11.3521127 C33.0934579,11.8525847 32.9478208,12.2523459 32.6565421,12.5514085 C32.3652633,12.850471 31.9797532,13 31.5,13 Z M42.6580311,4.00741023 C43.0690867,3.97200615 43.3955083,4.06346531 43.6373057,4.28179043 C43.8791031,4.50011555 44,4.82169773 44,5.24654661 C44,5.71860093 43.8881704,6.06083518 43.6645078,6.27325962 C43.4408452,6.48568406 43.038863,6.62139764 42.4585492,6.68040443 L41.9145078,6.73351028 C41.3100142,6.80431842 40.8778079,6.99018702 40.6178756,7.29112165 C40.3579434,7.59205628 40.2279793,8.00214731 40.2279793,8.52140706 L40.2279793,11.5484402 C40.2279793,12.0322959 40.0738357,12.3951822 39.765544,12.6371101 C39.4572523,12.8790379 39.0734047,13 38.6139896,13 C38.1545746,13 37.7707269,12.8790379 37.4624352,12.6371101 C37.1541435,12.3951822 37,12.0322959 37,11.5484402 L37,5.4235661 C37,4.9751145 37.1541435,4.62697966 37.4624352,4.37915114 C37.7707269,4.13132263 38.1424849,4.00741023 38.5777202,4.00741023 C39.0250454,4.00741023 39.3847137,4.12542204 39.6567358,4.3614492 C39.9287578,4.59747635 40.0647668,4.92790942 40.0647668,5.3527583 L40.0647668,5.68909532 C40.2582048,5.16983557 40.5755591,4.76859542 41.0168394,4.48536283 C41.4581197,4.20213024 41.9205503,4.04871489 42.4041451,4.02511218 L42.6580311,4.00741023 Z M46.5,13 C46.0730316,13 45.7162936,12.8789382 45.4297753,12.636811 C45.143257,12.3946838 45,12.0314985 45,11.5472441 L45,5.45275591 C45,4.96850152 45.143257,4.60531617 45.4297753,4.36318898 C45.7162936,4.12106178 46.0730316,4 46.5,4 C46.9269684,4 47.2837064,4.12106178 47.5702247,4.36318898 C47.856743,4.60531617 48,4.96850152 48,5.45275591 L48,11.5472441 C48,12.0314985 47.856743,12.3946838 47.5702247,12.636811 C47.2837064,12.8789382 46.9269684,13 46.5,13 Z M46.5,3 C46.040814,3 45.6760218,2.86257447 45.4056122,2.5877193 C45.1352027,2.31286412 45,1.9473707 45,1.49122807 C45,1.03508544 45.1352027,0.672515965 45.4056122,0.403508772 C45.6760218,0.134501579 46.040814,0 46.5,0 C46.9489818,0 47.3112231,0.134501579 47.5867347,0.403508772 C47.8622463,0.672515965 48,1.03508544 48,1.49122807 C48,1.9473707 47.8647973,2.31286412 47.5943878,2.5877193 C47.3239782,2.86257447 46.959186,3 46.5,3 Z M56.4033149,4 C57.099451,4 57.7209917,4.18867736 58.2679558,4.56603774 C58.8149199,4.94339811 59.24033,5.47459745 59.5441989,6.15965167 C59.8480678,6.84470589 60,7.62844261 60,8.51088534 C60,9.39332807 59.8480678,10.1683566 59.5441989,10.8359942 C59.24033,11.5036318 58.8176823,12.0174147 58.2762431,12.3773585 C57.7348039,12.7373022 57.1105008,12.9172714 56.4033149,12.9172714 C55.8839753,12.9172714 55.4060795,12.8069677 54.9696133,12.586357 C54.533147,12.3657464 54.1933714,12.069668 53.9502762,11.6981132 L53.9502762,14.658926 C53.9502762,15.0653141 53.8176809,15.3904197 53.5524862,15.6342525 C53.2872915,15.8780854 52.9392287,16 52.5082873,16 C52.0552464,16 51.6906091,15.8693772 51.4143646,15.6081277 C51.1381202,15.3468782 51,15.0130644 51,14.6066763 L51,5.46298984 C51,5.03337956 51.129833,4.68795486 51.3895028,4.42670537 C51.6491726,4.16545588 51.9999978,4.03483309 52.441989,4.03483309 C52.8618806,4.03483309 53.2016562,4.15094224 53.461326,4.38316401 C53.7209958,4.61538578 53.8674031,4.92307501 53.9005525,5.30624093 C54.1325978,4.89985283 54.4723735,4.58055269 54.9198895,4.34833091 C55.3674056,4.11610914 55.8618757,4 56.4033149,4 Z M55.5082873,10.6008708 C56.0165771,10.6008708 56.406076,10.4209017 56.6767956,10.0609579 C56.9475152,9.70101417 57.0828729,9.18432848 57.0828729,8.51088534 C57.0828729,7.80260894 56.9447528,7.25979869 56.6685083,6.88243832 C56.3922638,6.50507794 56.0000025,6.31640058 55.4917127,6.31640058 C54.9834229,6.31640058 54.5911616,6.50217521 54.3149171,6.87373004 C54.0386727,7.24528488 53.9005525,7.77938694 53.9005525,8.47605225 C53.9005525,9.16110647 54.0386727,9.68650035 54.3149171,10.0522496 C54.5911616,10.4179989 54.9889477,10.6008708 55.5082873,10.6008708 Z" id="ZipTrip" fill="#FFFFFF"></path>
    </g>
</svg>
